<?xml version="1.0" encoding="UTF-8" standalone="no"?>
<!-- Created with Inkscape (http://www.inkscape.org/) -->

<svg
   width="177.60275mm"
   height="46.761898mm"
   viewBox="0 0 177.60275 46.761898"
   version="1.1"
   id="svg1"
   inkscape:version="1.3.2 (091e20e, 2023-11-25, custom)"
   sodipodi:docname="pie.svg"
   xmlns:inkscape="http://www.inkscape.org/namespaces/inkscape"
   xmlns:sodipodi="http://sodipodi.sourceforge.net/DTD/sodipodi-0.dtd"
   xmlns="http://www.w3.org/2000/svg"
   xmlns:svg="http://www.w3.org/2000/svg">
  <sodipodi:namedview
     id="namedview1"
     pagecolor="#505050"
     bordercolor="#eeeeee"
     borderopacity="1"
     inkscape:showpageshadow="0"
     inkscape:pageopacity="0"
     inkscape:pagecheckerboard="0"
     inkscape:deskcolor="#505050"
     inkscape:document-units="mm"
     inkscape:zoom="0.51213161"
     inkscape:cx="335.85117"
     inkscape:cy="88.84435"
     inkscape:window-width="1920"
     inkscape:window-height="1009"
     inkscape:window-x="-8"
     inkscape:window-y="-8"
     inkscape:window-maximized="1"
     inkscape:current-layer="layer4" />
  <defs
     id="defs1" />
  <g
     inkscape:label="pan"
     inkscape:groupmode="layer"
     id="layer1"
     transform="translate(-11.68497,-111.02927)">
    <path
       id="rect1"
       style="fill:#000080;stroke-width:0.175505"
       d="M 11.690138 137.69896 L 26.668035 157.63056 L 100.36845 157.79127 L 100.46146 157.79127 L 174.16187 157.63056 L 189.13977 137.69896 L 100.46146 137.69896 L 100.36845 137.69896 L 11.690138 137.69896 z " />
  </g>
  <g
     inkscape:groupmode="layer"
     id="layer4"
     inkscape:label="top"
     transform="translate(-11.68497,-111.02927)">
    <path
       id="path1"
       style="fill:#d38d5f;stroke-width:0.313224"
       d="M 99.404164 111.04632 C 72.712639 110.65481 42.537272 117.00986 12.4596 137.1853 L 11.68497 137.1853 C 11.803668 137.27999 11.92231 137.36818 12.041021 137.46073 C 11.922364 137.54083 11.803623 137.61429 11.68497 137.69483 L 12.342811 137.69431 C 30.977127 151.93857 49.574968 140.12152 53.061256 137.65348 L 57.482175 137.64935 C 76.252079 152.05187 95.001193 139.97559 98.321542 137.60904 L 102.62154 137.60491 C 121.52776 152.16691 140.43267 139.8238 143.58183 137.56408 L 147.7609 137.55995 C 166.80392 152.28278 185.86944 139.66687 188.84263 137.51913 L 189.27671 137.51861 C 189.27671 137.51861 189.08307 137.39545 189.04882 137.37288 C 189.20411 137.25824 189.28757 137.19253 189.28757 137.19253 L 188.76718 137.19253 C 185.35076 134.98081 148.36491 111.76448 99.404164 111.04632 z " />
  </g>
</svg>
